<?xml version="1.0" encoding="utf-8" standalone="no"?>
<!DOCTYPE svg PUBLIC "-//W3C//DTD SVG 1.1//EN" "http://www.w3.org/Graphics/SVG/1.1/DTD/svg11.dtd">
<svg version="1.1" width="792pt" height="1224pt" viewBox="0 0 792 1224" xmlns="http://www.w3.org/2000/svg">
  <defs />
  <circle cx="82.63" cy="1065" r="0.72" stroke="#000000" stroke-width="0.24" fill="#FFFFFF" fill-opacity="1" />
  <g id="boundary">
    <path d="M45.82857,1108.9591 L46.42766,1109.4061 L49.231228,1111.4695 L52.031864,1113.5327 L52.637394,1113.984 L57.7013,1107.1669 L56.255352,1106.0966 L56.70467,1105.4559 L58.45017,1106.9391 L59.540997,1107.5493 L61.025856,1107.8546 L63.64747,1107.9017 L65.74458,1105.4431 L72.42645,1097.5814 L76.79327,1091.4692 L82.77542,1085.5847 L87.31805,1082.2234 L91.990845,1078.9781 L95.791046,1075.7029 L100.28804,1069.9385 L106.139725,1064.4796 L109.98234,1061.1611 L112.779465,1059.197 L114.655136,1056.9703 L117.755325,1052.603 L121.09625,1048.5496 L122.86457,1046.4045 L125.92233,1042.5188 L126.882996,1040.073 L127.88928,1036.4537 L130.46498,1034.8849 L135.9779,1030.4874 L136.66504,1029.9418 L149.68097,1018.8904 L158.80864,1011.0325 L163.08742,1006.9275 L164.70245,1003.7379 L166.84196,1000.63873 L168.85104,998.3734 L172.21509,995.747 L183.33223,982.426 L186.23378,980.6378 L188.06705,979.36975 L187.67302,977.9727 L188.15509,977.0571 L189.98834,977.1001 L195.05518,970.76825 L198.11296,967.62164 L206.62837,956.53143 L211.95584,949.1076 L222.48062,934.38934 L234.44754,916.133 L237.6779,912.9047 L245.84491,901.3758 L251.08463,893.38446 L252.39691,892.03046 L256.4118,890.9387 L264.40622,881.503 L276.45828,867.44196 L278.77362,864.6908 L284.4071,857.09064 L292.2225,848.48883 L298.1195,841.1981 L304.97748,834.20844 L309.3443,828.92523 L311.17786,829.1017 L312.4445,829.6689 L319.7354,820.58563 L318.69022,820.2805 L318.5144,819.4936 L322.22653,815.1263 L327.42383,807.5258 L326.8701,805.18744 L328.2248,803.4765 L329.25708,803.90216 L332.94348,800.58765 L335.17078,797.53986 L333.8129,799.3967 L339.3454,791.457 L344.01822,783.50836 L348.5155,773.5952 L349.5215,770.97284 L349.95795,765.8661 L350.26395,761.76056 L352.57928,756.129 L353.27606,754.37946 L357.8187,745.515 L361.4855,739.8361 L363.14615,737.3944 L362.75214,735.68787 L364.54327,733.41797 L365.11313,733.76605 L366.4646,732.93646 L369.56445,729.14044 L371.71716,726.4408 L373.01627,724.81586 L376.3347,721.3724 L380.39523,718.2214 L388.51984,706.03796 L398.65057,689.65906 L407.0358,677.7378 L409.78732,673.3357 L428.91528,654.6005 L437.17035,646.4797 L441.2733,641.27344 L449.35223,629.09 L459.6588,612.8436 L468.17746,599.568 L478.17773,584.19885 L487.65378,569.2722 L490.44125,564.7236 L496.9997,554.023 L508.9213,536.1168 L513.2003,529.6551 L519.09766,520.35156 L523.5198,512.2172 L528.35547,504.71503 L530.407,503.88544 L531.6736,503.27496 L534.4254,498.21036 L534.7314,495.63498 L540.00037,487.3933 L550.1893,472.0449 L557.04724,462.96896 L561.8505,455.50128 L566.6991,447.6849 L573.77216,437.33212 L583.4404,424.6617 L586.13336,421.1322 L589.71533,416.45865 L591.15454,413.92633 L593.6001,409.73425 L597.0063,401.6128 L604.0368,389.60464 L612.16144,374.79712 L619.36804,360.82413 L621.8557,356.15057 L624.3893,353.05045 L628.1438,347.72345 L633.5169,339.20618 L640.5051,330.47397 L644.6536,324.05466 L648.4963,317.80734 L652.1368,311.86984 L654.654,308.7697 L661.7269,302.26035 L671.7272,292.74094 L683.258,282.30594 L687.2307,278.28586 L689.1097,276.75952 L693.25854,274.32166 L697.2767,271.73758 L702.6466,268.4181 L705.6163,266.6811 L708.98035,264.04993 L710.9894,260.94983 L715.138,251.29703 L719.41705,242.04 L721.3381,237.84764 L723.305,234.48544 L725.70807,231.08025 L728.8507,226.4064 L731.9506,221.56055 L734.6143,216.36221 L737.3237,210.51039 L739.2874,203.74272 L740.1176,197.32312 L740.1632,192.58492 L740.2056,188.4572 L739.63904,182.12361 L738.2387,171.42595 L737.4995,159.11124 L736.97534,152.95404 L737.19354,144.65532 L737.13477,141.2112 L737.1055,139.37097 L737.8479,134.22852 L738.939,130.64664 L740.4239,126.71666 L741.9512,123.268166 L745.9693,116.48732 L746.17145,114.36335 L745.49396,112.19608 L743.9407,110.78995 L742.3712,110.205215 L740.87,110.015945 L739.4501,110.205215 L738.32355,110.738464 L737.568,111.7146 L736.46075,113.48609 L732.2241,120.658035 L725.50305,129.27502 L720.82697,134.0264 L717.6388,134.91212 L702.8908,137.24701 L690.0054,143.56334 L684.1048,146.53883 L677.90125,149.55293 L668.4059,160.23363 L660.58057,169.73607 L647.44434,190.1383 L625.3663,216.68896 L616.9811,225.35304 L607.47577,232.33983 L599.2795,241.16713 L593.04663,248.23582 L580.08624,273.42715 L576.3022,289.72275 L572.6845,290.44498 L570.7536,294.06107 L564.1852,305.77728 L561.63873,310.31775 L554.65063,314.78915 L533.96936,351.4039 L522.6893,367.91797 L506.8569,391.0921 L505.45013,393.49982 L451.6287,485.5361 L446.67566,484.3839 L419.87885,513.963 L418.53732,516.581 L397.27628,549.16486 L390.77344,556.5509 L379.40854,577.5093 L369.62326,594.0008 L364.27942,606.52844 L353.41296,632.0134 L324.97513,668.3489 L320.123,664.8796 L311.19714,676.03125 L313.6819,678.18506 L300.3079,693.49805 L293.90277,702.9987 L285.5336,715.41815 L280.0631,723.5303 L273.9215,732.6442 L257.54504,756.94135 L254.59172,762.2075 L236.8638,793.8343 L181.24506,874.60803 L145.71461,927.2408 L146.36578,927.7266 L130.13617,944.057 L128.4135,942.531 L119.78077,954.31323 L114.40122,965.6486 L113.86736,967.19196 L109.9171,978.63464 L102.90965,998.92804 L98.39277,1011.96094 L97.96948,1011.7848 L95.716156,1017.70807 L92.99714,1021.7228 L89.64947,1025.6776 L86.66981,1029.198 L80.502495,1036.6301 L76.217,1043.9974 L67.649506,1057.8257 L61.69018,1067.4498 L58.557526,1076.167 L56.649384,1080.977 L54.402493,1088.4045 L51.77474,1092.849 L49.11422,1096.8422 L49.46905,1099.7305 L52.74183,1102.3527 L52.23371,1103.0577 L50.862934,1102.069 z" stroke="#000000" stroke-width="0.24" stroke-linecap="round" stroke-linejoin="round" fill="none" />
  </g>
</svg>